<?xml version="1.0" encoding="UTF-8" standalone="no"?>
<!DOCTYPE svg PUBLIC "-//W3C//DTD SVG 1.1//EN"
 "http://www.w3.org/Graphics/SVG/1.1/DTD/svg11.dtd">
<!-- Generated by graphviz version 3.0.0 (20220226.1711)
 -->
<!-- Title: dependencies Pages: 1 -->
<svg width="860pt" height="326pt"
 viewBox="0.00 0.00 860.00 325.80" xmlns="http://www.w3.org/2000/svg" xmlns:xlink="http://www.w3.org/1999/xlink">
<g id="graph0" class="graph" transform="scale(1 1) rotate(0) translate(4 321.8)">
<title>dependencies</title>
<polygon fill="white" stroke="transparent" points="-4,4 -4,-321.8 856,-321.8 856,4 -4,4"/>
<text text-anchor="middle" x="426" y="-8.2" font-family="sans-serif" font-size="14.00">dependencies</text>
<g id="clust1" class="cluster">
<title>cluster_AppModule</title>
<polygon fill="none" stroke="black" stroke-dasharray="1,5" points="172,-108.8 172,-309.8 546,-309.8 546,-108.8 172,-108.8"/>
</g>
<g id="clust3" class="cluster">
<title>cluster_AppModule_imports</title>
<polygon fill="none" stroke="black" points="318,-116.8 318,-244.8 538,-244.8 538,-116.8 318,-116.8"/>
</g>
<g id="clust6" class="cluster">
<title>cluster_AppModule_providers</title>
<polygon fill="none" stroke="black" points="180,-192.8 180,-244.8 310,-244.8 310,-192.8 180,-192.8"/>
</g>
<g id="clust7" class="cluster">
<title>cluster_AuthModule</title>
<polygon fill="none" stroke="black" stroke-dasharray="1,5" points="295,-32.8 295,-100.8 445,-100.8 445,-32.8 295,-32.8"/>
</g>
<g id="clust12" class="cluster">
<title>cluster_AuthModule_providers</title>
<polygon fill="none" stroke="black" points="303,-40.8 303,-92.8 437,-92.8 437,-40.8 303,-40.8"/>
</g>
<g id="clust13" class="cluster">
<title>cluster_PrismaModule</title>
<polygon fill="none" stroke="black" stroke-dasharray="1,5" points="554,-184.8 554,-252.8 844,-252.8 844,-184.8 554,-184.8"/>
</g>
<g id="clust16" class="cluster">
<title>cluster_PrismaModule_exports</title>
<polygon fill="none" stroke="black" points="720,-192.8 720,-244.8 836,-244.8 836,-192.8 720,-192.8"/>
</g>
<g id="clust18" class="cluster">
<title>cluster_PrismaModule_providers</title>
<polygon fill="none" stroke="black" points="562,-192.8 562,-244.8 712,-244.8 712,-192.8 562,-192.8"/>
</g>
<g id="clust19" class="cluster">
<title>cluster_UsersModule</title>
<polygon fill="none" stroke="black" stroke-dasharray="1,5" points="8,-108.8 8,-176.8 164,-176.8 164,-108.8 8,-108.8"/>
</g>
<g id="clust24" class="cluster">
<title>cluster_UsersModule_providers</title>
<polygon fill="none" stroke="black" points="16,-116.8 16,-168.8 156,-168.8 156,-116.8 16,-116.8"/>
</g>
<!-- AuthModule -->
<g id="node1" class="node">
<title>AuthModule</title>
<polygon fill="#8dd3c7" stroke="black" points="413.55,-160.8 410.55,-164.8 389.55,-164.8 386.55,-160.8 326.45,-160.8 326.45,-124.8 413.55,-124.8 413.55,-160.8"/>
<text text-anchor="middle" x="370" y="-138.6" font-family="Times,serif" font-size="14.00">AuthModule</text>
</g>
<!-- AppModule -->
<g id="node4" class="node">
<title>AppModule</title>
<polygon fill="#8dd3c7" stroke="black" points="445.66,-301.8 442.66,-305.8 421.66,-305.8 418.66,-301.8 362.34,-301.8 362.34,-265.8 445.66,-265.8 445.66,-301.8"/>
<text text-anchor="middle" x="404" y="-279.6" font-family="Times,serif" font-size="14.00">AppModule</text>
</g>
<!-- AuthModule&#45;&gt;AppModule -->
<g id="edge1" class="edge">
<title>AuthModule&#45;&gt;AppModule</title>
<path fill="none" stroke="black" d="M413.7,-142.8C419.51,-142.8 423.51,-142.8 423.51,-142.8 423.51,-142.8 423.51,-255.66 423.51,-255.66"/>
<polygon fill="black" stroke="black" points="420.01,-255.66 423.51,-265.66 427.01,-255.66 420.01,-255.66"/>
</g>
<!-- PrismaModule -->
<g id="node2" class="node">
<title>PrismaModule</title>
<polygon fill="#8dd3c7" stroke="black" points="530.44,-160.8 527.44,-164.8 506.44,-164.8 503.44,-160.8 431.56,-160.8 431.56,-124.8 530.44,-124.8 530.44,-160.8"/>
<text text-anchor="middle" x="481" y="-138.6" font-family="Times,serif" font-size="14.00">PrismaModule</text>
</g>
<!-- UsersModule -->
<g id="node3" class="node">
<title>UsersModule</title>
<polygon fill="#8dd3c7" stroke="black" points="417.94,-236.8 414.94,-240.8 393.94,-240.8 390.94,-236.8 326.06,-236.8 326.06,-200.8 417.94,-200.8 417.94,-236.8"/>
<text text-anchor="middle" x="372" y="-214.6" font-family="Times,serif" font-size="14.00">UsersModule</text>
</g>
<!-- PrismaModule&#45;&gt;UsersModule -->
<g id="edge8" class="edge">
<title>PrismaModule&#45;&gt;UsersModule</title>
<path fill="none" stroke="black" d="M436.46,-161C436.46,-185.16 436.46,-224.8 436.46,-224.8 436.46,-224.8 427.82,-224.8 427.82,-224.8"/>
<polygon fill="black" stroke="black" points="427.82,-221.3 417.82,-224.8 427.82,-228.3 427.82,-221.3"/>
</g>
<!-- PrismaModule&#45;&gt;AppModule -->
<g id="edge2" class="edge">
<title>PrismaModule&#45;&gt;AppModule</title>
<path fill="none" stroke="black" d="M441.15,-160.94C441.15,-160.94 441.15,-255.73 441.15,-255.73"/>
<polygon fill="black" stroke="black" points="437.65,-255.72 441.15,-265.73 444.65,-255.73 437.65,-255.72"/>
</g>
<!-- PrismaService  -->
<g id="node7" class="node">
<title>PrismaService </title>
<polygon fill="#fb8072" stroke="black" points="828.37,-236.8 727.63,-236.8 727.63,-200.8 828.37,-200.8 828.37,-236.8"/>
<text text-anchor="middle" x="778" y="-214.6" font-family="Times,serif" font-size="14.00">PrismaService </text>
</g>
<!-- PrismaModule&#45;&gt;PrismaService  -->
<g id="edge6" class="edge">
<title>PrismaModule&#45;&gt;PrismaService </title>
<path fill="none" stroke="black" stroke-dasharray="5,2" d="M530.38,-142.8C614.83,-142.8 778,-142.8 778,-142.8 778,-142.8 778,-190.79 778,-190.79"/>
<polygon fill="black" stroke="black" points="774.5,-190.79 778,-200.79 781.5,-190.79 774.5,-190.79"/>
</g>
<!-- UsersModule&#45;&gt;AppModule -->
<g id="edge3" class="edge">
<title>UsersModule&#45;&gt;AppModule</title>
<path fill="none" stroke="black" d="M389.94,-236.91C389.94,-236.91 389.94,-255.79 389.94,-255.79"/>
<polygon fill="black" stroke="black" points="386.44,-255.79 389.94,-265.79 393.44,-255.79 386.44,-255.79"/>
</g>
<!-- AppService -->
<g id="node5" class="node">
<title>AppService</title>
<ellipse fill="#fdb462" stroke="black" cx="245" cy="-218.8" rx="56.75" ry="18"/>
<text text-anchor="middle" x="245" y="-214.6" font-family="Times,serif" font-size="14.00">AppService</text>
</g>
<!-- AppService&#45;&gt;AppModule -->
<g id="edge4" class="edge">
<title>AppService&#45;&gt;AppModule</title>
<path fill="none" stroke="black" d="M245,-236.91C245,-256.14 245,-283.8 245,-283.8 245,-283.8 352.22,-283.8 352.22,-283.8"/>
<polygon fill="black" stroke="black" points="352.22,-287.3 362.22,-283.8 352.22,-280.3 352.22,-287.3"/>
</g>
<!-- AuthService -->
<g id="node6" class="node">
<title>AuthService</title>
<ellipse fill="#fdb462" stroke="black" cx="370" cy="-66.8" rx="59.11" ry="18"/>
<text text-anchor="middle" x="370" y="-62.6" font-family="Times,serif" font-size="14.00">AuthService</text>
</g>
<!-- AuthService&#45;&gt;AuthModule -->
<g id="edge5" class="edge">
<title>AuthService&#45;&gt;AuthModule</title>
<path fill="none" stroke="black" d="M370,-84.81C370,-84.81 370,-114.65 370,-114.65"/>
<polygon fill="black" stroke="black" points="366.5,-114.65 370,-124.65 373.5,-114.65 366.5,-114.65"/>
</g>
<!-- PrismaService -->
<g id="node8" class="node">
<title>PrismaService</title>
<ellipse fill="#fdb462" stroke="black" cx="637" cy="-218.8" rx="66.64" ry="18"/>
<text text-anchor="middle" x="637" y="-214.6" font-family="Times,serif" font-size="14.00">PrismaService</text>
</g>
<!-- PrismaService&#45;&gt;PrismaModule -->
<g id="edge7" class="edge">
<title>PrismaService&#45;&gt;PrismaModule</title>
<path fill="none" stroke="black" d="M573.82,-212.8C533.22,-212.8 488.03,-212.8 488.03,-212.8 488.03,-212.8 488.03,-170.83 488.03,-170.83"/>
<polygon fill="black" stroke="black" points="491.53,-170.83 488.03,-160.83 484.53,-170.83 491.53,-170.83"/>
</g>
<!-- UsersService -->
<g id="node9" class="node">
<title>UsersService</title>
<ellipse fill="#fdb462" stroke="black" cx="86" cy="-142.8" rx="61.97" ry="18"/>
<text text-anchor="middle" x="86" y="-138.6" font-family="Times,serif" font-size="14.00">UsersService</text>
</g>
<!-- UsersService&#45;&gt;UsersModule -->
<g id="edge9" class="edge">
<title>UsersService&#45;&gt;UsersModule</title>
<path fill="none" stroke="black" d="M148.21,-142.8C213.31,-142.8 306.16,-142.8 306.16,-142.8 306.16,-142.8 306.16,-218.8 306.16,-218.8 306.16,-218.8 316.27,-218.8 316.27,-218.8"/>
<polygon fill="black" stroke="black" points="316.27,-222.3 326.27,-218.8 316.27,-215.3 316.27,-222.3"/>
</g>
</g>
</svg>
